<?xml version="1.0" standalone="no"?><svg xmlns:xlink="http://www.w3.org/1999/xlink" xmlns="http://www.w3.org/2000/svg" viewBox="0 0 1000 428.57019867549667" preserveAspectRatio="xMaxYMax slice"><g transform="scale(0.6622516556291391)"><rect x="0" y="0" width="1510" height="647.1428571428571" fill="#013698"/><rect x="0" y="0" width="107.85714285714286" height="107.85714285714286" fill="#013698"/><rect x="0" y="0" width="53.93" height="53.93" fill="#2b94ee"/><path d="M 0 53.93 A 53.93 53.93 0 0 0 53.93 0 L 0 0" fill="#2f9ff7"/><rect x="53.93" y="0" width="53.93" height="53.93" fill="#1e78d4"/><path d="M 53.93 53.93 A 53.93 53.93 0 0 1  107.86 0 L 53.93 53.93 A 53.93 53.93 0 0 0 107.86 0" fill="#33a7ff"/><rect x="0" y="53.93" width="53.93" height="53.93" fill="#0441a3"/><path d="M 0 53.93 A 53.93 53.93 0 0 1 53.93 107.86 L 0 107.86" fill="#2d9af3"/><rect x="53.93" y="53.93" width="53.93" height="53.93" fill="#0c5bbb"/><path d="M 53.93 53.93 A 53.93 53.93 0 0 1  107.86 107.86 L 53.93 53.93 A 53.93 53.93 0 0 0 107.86 107.86" fill="#1477d5"/><rect x="107.85714285714286" y="0" width="107.85714285714286" height="107.85714285714286" fill="#013698"/><rect x="107.86" y="0" width="53.93" height="53.93" fill="#2689e4"/><path d="M 107.86 0 A 53.93 53.93 0 0 1  161.79 53.93 L 107.86 0 A 53.93 53.93 0 0 0 161.79 53.93" fill="#2c97f0"/><rect x="161.79" y="0" width="53.93" height="53.93" fill="#0949a9"/><path d="M 161.79 0 A 53.93 53.93 0 0 1  215.72 53.93 L 161.79 0 A 53.93 53.93 0 0 0 215.72 53.93" fill="#278ce6"/><rect x="107.86" y="53.93" width="53.93" height="53.93" fill="#126fce"/><path d="M 107.86 53.93 A 53.93 53.93 0 0 1  161.79 107.86 L 107.86 53.93 A 53.93 53.93 0 0 0 161.79 107.86" fill="#0f55b5"/><rect x="161.79" y="53.93" width="53.93" height="53.93" fill="#116ccb"/><path d="M 161.79 53.93 A 53.93 53.93 0 0 1  215.72 107.86 L 161.79 53.93 A 53.93 53.93 0 0 0 215.72 107.86" fill="#0648a9"/><rect x="215.71428571428572" y="0" width="107.85714285714286" height="107.85714285714286" fill="#013698"/><rect x="215.71" y="0" width="53.93" height="53.93" fill="#0948a8"/><path d="M 215.71 53.93 A 53.93 53.93 0 0 1  269.64 0 L 215.71 53.93 A 53.93 53.93 0 0 0 269.64 0" fill="#084fb0"/><rect x="269.64" y="0" width="53.93" height="53.93" fill="#1579d8"/><path d="M 269.64 0 A 53.93 53.93 0 0 1  323.57 53.93 L 269.64 0 A 53.93 53.93 0 0 0 323.57 53.93" fill="#0e64c3"/><rect x="215.71" y="53.93" width="53.93" height="53.93" fill="#0b58b8"/><path d="M 215.71 53.93 A 53.93 53.93 0 0 1  269.64 107.86 L 215.71 53.93 A 53.93 53.93 0 0 0 269.64 107.86" fill="#1c72cf"/><rect x="269.64" y="53.93" width="53.93" height="53.93" fill="#0441a2"/><path d="M 269.64 107.86 A 53.93 53.93 0 0 1  323.57 53.93 L 269.64 107.86 A 53.93 53.93 0 0 0 323.57 53.93" fill="#167cdb"/><rect x="323.57" y="0" width="107.86" height="107.86" fill="#1271d0"/><path d="M 323.57 107.86 A 107.86 107.86 0 0 1  431.43 0 L 323.57 107.86 A 107.86 107.86 0 0 0 431.43 0" fill="#084fb0"/><rect x="431.42857142857144" y="0" width="107.85714285714286" height="107.85714285714286" fill="#013698"/><rect x="431.43" y="0" width="53.93" height="53.93" fill="#2588e3"/><path d="M 431.43 0 A 53.93 53.93 0 0 1  485.36 53.93 L 431.43 0 A 53.93 53.93 0 0 0 485.36 53.93" fill="#0642a3"/><rect x="485.36" y="0" width="53.93" height="53.93" fill="#1460be"/><path d="M 485.36 53.93 A 53.93 53.93 0 0 1  539.29 0 L 485.36 53.93 A 53.93 53.93 0 0 0 539.29 0" fill="#177fdd"/><rect x="431.43" y="53.93" width="53.93" height="53.93" fill="#0b59b9"/><path d="M 431.43 107.86 A 53.93 53.93 0 0 1  485.36 53.93 L 485.36 107.86" fill="#2a93ed"/><rect x="485.36" y="53.93" width="53.93" height="53.93" fill="#167ddb"/><path d="M 485.36 53.93 A 53.93 53.93 0 0 0 539.29 107.86 L 539.29 53.93" fill="#0e61c0"/><rect x="539.2857142857143" y="0" width="107.85714285714286" height="107.85714285714286" fill="#013698"/><rect x="539.29" y="0" width="53.93" height="53.93" fill="#116dcc"/><path d="M 539.29 0 A 53.93 53.93 0 0 1  593.2199999999999 53.93 L 539.29 0 A 53.93 53.93 0 0 0 593.2199999999999 53.93" fill="#177fdd"/><rect x="593.21" y="0" width="53.93" height="53.93" fill="#2587e2"/><path d="M 593.21 0 A 53.93 53.93 0 0 1 647.14 53.93 L 593.21 53.93" fill="#196dca"/><rect x="539.29" y="53.93" width="53.93" height="53.93" fill="#1069c8"/><path d="M 539.29 53.93 A 53.93 53.93 0 0 1  593.2199999999999 107.86 L 539.29 53.93 A 53.93 53.93 0 0 0 593.2199999999999 107.86" fill="#167cda"/><rect x="593.21" y="53.93" width="53.93" height="53.93" fill="#0a4aaa"/><path d="M 593.21 107.86 A 53.93 53.93 0 0 1  647.14 53.93 L 593.21 107.86 A 53.93 53.93 0 0 0 647.14 53.93" fill="#0f67c6"/><rect x="647.1428571428571" y="0" width="107.85714285714286" height="107.85714285714286" fill="#013698"/><rect x="647.14" y="0" width="53.93" height="53.93" fill="#1f7ad6"/><path d="M 647.14 0 A 53.93 53.93 0 0 1  701.0699999999999 53.93 L 647.14 0 A 53.93 53.93 0 0 0 701.0699999999999 53.93" fill="#02399b"/><rect x="701.07" y="0" width="53.93" height="53.93" fill="#0440a1"/><path d="M 701.07 53.93 A 53.93 53.93 0 0 1  755 0 L 755 53.93" fill="#1460be"/><rect x="647.14" y="53.93" width="53.93" height="53.93" fill="#0d5fbf"/><path d="M 647.14 107.86 A 53.93 53.93 0 0 1  701.0699999999999 53.93 L 647.14 107.86 A 53.93 53.93 0 0 0 701.0699999999999 53.93" fill="#1068c7"/><rect x="701.07" y="53.93" width="53.93" height="53.93" fill="#1b71ce"/><path d="M 701.07 53.93 A 53.93 53.93 0 0 1  755 107.86 L 701.07 53.93 A 53.93 53.93 0 0 0 755 107.86" fill="#074cad"/><rect x="755" y="0" width="107.85714285714286" height="107.85714285714286" fill="#013698"/><rect x="755" y="0" width="53.93" height="53.93" fill="#1059b8"/><path d="M 755 0 A 53.93 53.93 0 0 1 808.93 53.93 L 755 53.93" fill="#278be6"/><rect x="808.93" y="0" width="53.93" height="53.93" fill="#115ab9"/><path d="M 808.93 0 A 53.93 53.93 0 0 1  862.8599999999999 53.93 L 808.93 0 A 53.93 53.93 0 0 0 862.8599999999999 53.93" fill="#0b59b9"/><rect x="755" y="53.93" width="53.93" height="53.93" fill="#0b58b8"/><path d="M 755 53.93 A 53.93 53.93 0 0 1  808.93 107.86 L 755 53.93 A 53.93 53.93 0 0 0 808.93 107.86" fill="#043fa1"/><rect x="808.93" y="53.93" width="53.93" height="53.93" fill="#0e63c2"/><path d="M 808.93 53.93 A 53.93 53.93 0 0 1  862.8599999999999 107.86 L 808.93 53.93 A 53.93 53.93 0 0 0 862.8599999999999 107.86" fill="#1475d4"/><rect x="862.86" y="0" width="107.86" height="107.86" fill="#207cd8"/><path d="M 862.86 0 A 107.86 107.86 0 0 1  970.72 107.86 L 862.86 0 A 107.86 107.86 0 0 0 970.72 107.86" fill="#1460bf"/><rect x="970.71" y="0" width="107.86" height="107.86" fill="#126fce"/><path d="M 970.71 107.86 A 107.86 107.86 0 0 1  1078.57 0 L 1078.57 107.86" fill="#1069c8"/><rect x="1078.5714285714287" y="0" width="107.85714285714286" height="107.85714285714286" fill="#013698"/><rect x="1078.57" y="0" width="53.93" height="53.93" fill="#1360be"/><path d="M 1078.57 53.93 A 53.93 53.93 0 0 1  1132.5 0 L 1078.57 53.93 A 53.93 53.93 0 0 0 1132.5 0" fill="#106ac9"/><rect x="1132.5" y="0" width="53.93" height="53.93" fill="#1578d7"/><path d="M 1132.5 0 A 53.93 53.93 0 0 0 1186.43 53.93 L 1186.43 0" fill="#116dcd"/><rect x="1078.57" y="53.93" width="53.93" height="53.93" fill="#1579d7"/><path d="M 1078.57 53.93 A 53.93 53.93 0 0 1  1132.5 107.86 L 1078.57 53.93 A 53.93 53.93 0 0 0 1132.5 107.86" fill="#033a9c"/><rect x="1132.5" y="53.93" width="53.93" height="53.93" fill="#0a53b3"/><path d="M 1132.5 107.86 A 53.93 53.93 0 0 1  1186.43 53.93 L 1186.43 107.86" fill="#0d60c0"/><rect x="1186.43" y="0" width="107.86" height="107.86" fill="#278de7"/><path d="M 1186.43 107.86 A 107.86 107.86 0 0 0 1294.29 0 L 1186.43 0" fill="#177fdd"/><rect x="1294.2857142857142" y="0" width="107.85714285714286" height="107.85714285714286" fill="#013698"/><rect x="1294.29" y="0" width="53.93" height="53.93" fill="#1d74d1"/><path d="M 1294.29 53.93 A 53.93 53.93 0 0 1  1348.22 0 L 1294.29 53.93 A 53.93 53.93 0 0 0 1348.22 0" fill="#0c5bbb"/><rect x="1348.21" y="0" width="53.93" height="53.93" fill="#0544a5"/><path d="M 1348.21 53.93 A 53.93 53.93 0 0 0 1402.14 0 L 1348.21 0" fill="#2586e1"/><rect x="1294.29" y="53.93" width="53.93" height="53.93" fill="#074aab"/><path d="M 1294.29 53.93 A 53.93 53.93 0 0 0 1348.22 107.86 L 1348.22 53.93" fill="#033e9f"/><rect x="1348.21" y="53.93" width="53.93" height="53.93" fill="#0f66c6"/><path d="M 1348.21 53.93 A 53.93 53.93 0 0 1  1402.14 107.86 L 1348.21 53.93 A 53.93 53.93 0 0 0 1402.14 107.86" fill="#167ddb"/><rect x="1402.14" y="0" width="107.86" height="107.86" fill="#1564c2"/><path d="M 1402.14 107.86 A 107.86 107.86 0 0 1  1510 0 L 1402.14 107.86 A 107.86 107.86 0 0 0 1510 0" fill="#0845a6"/><rect x="0" y="107.85714285714286" width="107.85714285714286" height="107.85714285714286" fill="#013698"/><rect x="0" y="107.86" width="53.93" height="53.93" fill="#2a92ec"/><path d="M 0 161.79 A 53.93 53.93 0 0 1  53.93 107.86 L 0 161.79 A 53.93 53.93 0 0 0 53.93 107.86" fill="#0a55b6"/><rect x="53.93" y="107.86" width="53.93" height="53.93" fill="#0e64c3"/><path d="M 53.93 161.79 A 53.93 53.93 0 0 0 107.86 107.86 L 53.93 107.86" fill="#0f57b6"/><rect x="0" y="161.79" width="53.93" height="53.93" fill="#02389a"/><path d="M 0 215.72 A 53.93 53.93 0 0 1  53.93 161.79 L 0 215.72 A 53.93 53.93 0 0 0 53.93 161.79" fill="#0649aa"/><rect x="53.93" y="161.79" width="53.93" height="53.93" fill="#167edd"/><path d="M 53.93 215.72 A 53.93 53.93 0 0 1  107.86 161.79 L 53.93 215.72 A 53.93 53.93 0 0 0 107.86 161.79" fill="#0f65c5"/><rect x="107.85714285714286" y="107.85714285714286" width="107.85714285714286" height="107.85714285714286" fill="#013698"/><rect x="107.86" y="107.86" width="53.93" height="53.93" fill="#30a1fa"/><path d="M 107.86 107.86 A 53.93 53.93 0 0 0 161.79 161.79 L 161.79 107.86" fill="#32a4fc"/><rect x="161.79" y="107.86" width="53.93" height="53.93" fill="#0d52b2"/><path d="M 161.79 161.79 A 53.93 53.93 0 0 1  215.72 107.86 L 161.79 161.79 A 53.93 53.93 0 0 0 215.72 107.86" fill="#0950b0"/><rect x="107.86" y="161.79" width="53.93" height="53.93" fill="#125ebc"/><path d="M 107.86 215.72 A 53.93 53.93 0 0 0 161.79 161.79 L 107.86 161.79" fill="#125cbb"/><rect x="161.79" y="161.79" width="53.93" height="53.93" fill="#013698"/><path d="M 161.79 161.79 A 53.93 53.93 0 0 1  215.72 215.72 L 161.79 161.79 A 53.93 53.93 0 0 0 215.72 215.72" fill="#1058b7"/><rect x="215.71" y="107.86" width="107.86" height="107.86" fill="#288ee8"/><path d="M 215.71 215.72 A 107.86 107.86 0 0 1  323.57 107.86 L 215.71 215.72 A 107.86 107.86 0 0 0 323.57 107.86" fill="#02389a"/><rect x="323.57142857142856" y="107.85714285714286" width="107.85714285714286" height="107.85714285714286" fill="#013698"/><rect x="323.57" y="107.86" width="53.93" height="53.93" fill="#023899"/><path d="M 323.57 161.79 A 53.93 53.93 0 0 0 377.5 107.86 L 323.57 107.86" fill="#0948a8"/><rect x="377.5" y="107.86" width="53.93" height="53.93" fill="#02399b"/><path d="M 377.5 107.86 A 53.93 53.93 0 0 1  431.43 161.79 L 377.5 107.86 A 53.93 53.93 0 0 0 431.43 161.79" fill="#053fa0"/><rect x="323.57" y="161.79" width="53.93" height="53.93" fill="#0c5dbd"/><path d="M 323.57 161.79 A 53.93 53.93 0 0 1  377.5 215.72 L 323.57 161.79 A 53.93 53.93 0 0 0 377.5 215.72" fill="#0641a2"/><rect x="377.5" y="161.79" width="53.93" height="53.93" fill="#116dcd"/><path d="M 377.5 161.79 A 53.93 53.93 0 0 0 431.43 215.72 L 431.43 161.79" fill="#0e63c3"/><rect x="431.42857142857144" y="107.85714285714286" width="107.85714285714286" height="107.85714285714286" fill="#013698"/><rect x="431.43" y="107.86" width="53.93" height="53.93" fill="#1883e1"/><path d="M 431.43 161.79 A 53.93 53.93 0 0 1  485.36 107.86 L 431.43 161.79 A 53.93 53.93 0 0 0 485.36 107.86" fill="#1782e0"/><rect x="485.36" y="107.86" width="53.93" height="53.93" fill="#0948a8"/><path d="M 485.36 161.79 A 53.93 53.93 0 0 1  539.29 107.86 L 485.36 161.79 A 53.93 53.93 0 0 0 539.29 107.86" fill="#0951b2"/><rect x="431.43" y="161.79" width="53.93" height="53.93" fill="#2e9bf4"/><path d="M 431.43 215.72 A 53.93 53.93 0 0 1  485.36 161.79 L 431.43 215.72 A 53.93 53.93 0 0 0 485.36 161.79" fill="#2b95ee"/><rect x="485.36" y="161.79" width="53.93" height="53.93" fill="#32a5fd"/><path d="M 485.36 161.79 A 53.93 53.93 0 0 1  539.29 215.72 L 485.36 161.79 A 53.93 53.93 0 0 0 539.29 215.72" fill="#0f66c5"/><rect x="539.29" y="107.86" width="107.86" height="107.86" fill="#116ecd"/><path d="M 539.29 215.72 A 107.86 107.86 0 0 1  647.15 107.86 L 539.29 215.72 A 107.86 107.86 0 0 0 647.15 107.86" fill="#116ecd"/><rect x="647.1428571428571" y="107.85714285714286" width="107.85714285714286" height="107.85714285714286" fill="#013698"/><rect x="647.14" y="107.86" width="53.93" height="53.93" fill="#1477d5"/><path d="M 647.14 107.86 A 53.93 53.93 0 0 0 701.0699999999999 161.79 L 701.0699999999999 107.86" fill="#268ae5"/><rect x="701.07" y="107.86" width="53.93" height="53.93" fill="#278ce6"/><path d="M 701.07 107.86 A 53.93 53.93 0 0 1  755 161.79 L 701.07 107.86 A 53.93 53.93 0 0 0 755 161.79" fill="#33a6fe"/><rect x="647.14" y="161.79" width="53.93" height="53.93" fill="#0d50b0"/><path d="M 647.14 215.72 A 53.93 53.93 0 0 1  701.0699999999999 161.79 L 701.0699999999999 215.72" fill="#1372d1"/><rect x="701.07" y="161.79" width="53.93" height="53.93" fill="#0b58b8"/><path d="M 701.07 215.72 A 53.93 53.93 0 0 1  755 161.79 L 701.07 215.72 A 53.93 53.93 0 0 0 755 161.79" fill="#0a54b4"/><rect x="755" y="107.86" width="107.86" height="107.86" fill="#0c5abb"/><path d="M 755 107.86 A 107.86 107.86 0 0 1  862.86 215.72 L 755 107.86 A 107.86 107.86 0 0 0 862.86 215.72" fill="#1476d5"/><rect x="862.86" y="107.86" width="107.86" height="107.86" fill="#02399b"/><path d="M 862.86 107.86 A 107.86 107.86 0 0 1  970.72 215.72 L 862.86 107.86 A 107.86 107.86 0 0 0 970.72 215.72" fill="#0f56b5"/><rect x="970.71" y="107.86" width="107.86" height="107.86" fill="#1563c1"/><path d="M 970.71 215.72 A 107.86 107.86 0 0 1  1078.57 107.86 L 970.71 215.72 A 107.86 107.86 0 0 0 1078.57 107.86" fill="#2588e2"/><rect x="1078.5714285714287" y="107.85714285714286" width="107.85714285714286" height="107.85714285714286" fill="#013698"/><rect x="1078.57" y="107.86" width="53.93" height="53.93" fill="#126ecd"/><path d="M 1078.57 107.86 A 53.93 53.93 0 0 1  1132.5 161.79 L 1078.57 107.86 A 53.93 53.93 0 0 0 1132.5 161.79" fill="#0c50b0"/><rect x="1132.5" y="107.86" width="53.93" height="53.93" fill="#033b9d"/><path d="M 1132.5 107.86 A 53.93 53.93 0 0 1  1186.43 161.79 L 1132.5 107.86 A 53.93 53.93 0 0 0 1186.43 161.79" fill="#157bd9"/><rect x="1078.57" y="161.79" width="53.93" height="53.93" fill="#2281dc"/><path d="M 1078.57 215.72 A 53.93 53.93 0 0 0 1132.5 161.79 L 1078.57 161.79" fill="#2b95ee"/><rect x="1132.5" y="161.79" width="53.93" height="53.93" fill="#0b57b7"/><path d="M 1132.5 215.72 A 53.93 53.93 0 0 1  1186.43 161.79 L 1132.5 215.72 A 53.93 53.93 0 0 0 1186.43 161.79" fill="#084dae"/><rect x="1186.4285714285716" y="107.85714285714286" width="107.85714285714286" height="107.85714285714286" fill="#013698"/><rect x="1186.43" y="107.86" width="53.93" height="53.93" fill="#02399b"/><path d="M 1186.43 161.79 A 53.93 53.93 0 0 1  1240.3600000000001 107.86 L 1240.3600000000001 161.79" fill="#2e9cf5"/><rect x="1240.36" y="107.86" width="53.93" height="53.93" fill="#023a9b"/><path d="M 1240.36 161.79 A 53.93 53.93 0 0 0 1294.29 107.86 L 1240.36 107.86" fill="#1a6fcc"/><rect x="1186.43" y="161.79" width="53.93" height="53.93" fill="#1781df"/><path d="M 1186.43 215.72 A 53.93 53.93 0 0 1  1240.3600000000001 161.79 L 1186.43 215.72 A 53.93 53.93 0 0 0 1240.3600000000001 161.79" fill="#0542a4"/><rect x="1240.36" y="161.79" width="53.93" height="53.93" fill="#0f56b6"/><path d="M 1240.36 215.72 A 53.93 53.93 0 0 1  1294.29 161.79 L 1240.36 215.72 A 53.93 53.93 0 0 0 1294.29 161.79" fill="#0845a6"/><rect x="1294.29" y="107.86" width="107.86" height="107.86" fill="#0544a6"/><path d="M 1294.29 215.72 A 107.86 107.86 0 0 1  1402.1499999999999 107.86 L 1294.29 215.72 A 107.86 107.86 0 0 0 1402.1499999999999 107.86" fill="#196cca"/><rect x="1402.142857142857" y="107.85714285714286" width="107.85714285714286" height="107.85714285714286" fill="#013698"/><rect x="1402.14" y="107.86" width="53.93" height="53.93" fill="#043c9d"/><path d="M 1402.14 161.79 A 53.93 53.93 0 0 1  1456.0700000000002 107.86 L 1402.14 161.79 A 53.93 53.93 0 0 0 1456.0700000000002 107.86" fill="#186bc8"/><rect x="1456.07" y="107.86" width="53.93" height="53.93" fill="#0646a8"/><path d="M 1456.07 107.86 A 53.93 53.93 0 0 1  1510 161.79 L 1456.07 107.86 A 53.93 53.93 0 0 0 1510 161.79" fill="#0d50b0"/><rect x="1402.14" y="161.79" width="53.93" height="53.93" fill="#0b59ba"/><path d="M 1402.14 215.72 A 53.93 53.93 0 0 1  1456.0700000000002 161.79 L 1402.14 215.72 A 53.93 53.93 0 0 0 1456.0700000000002 161.79" fill="#0b59b9"/><rect x="1456.07" y="161.79" width="53.93" height="53.93" fill="#1b72ce"/><path d="M 1456.07 161.79 A 53.93 53.93 0 0 1  1510 215.72 L 1456.07 161.79 A 53.93 53.93 0 0 0 1510 215.72" fill="#135fbe"/><rect x="0" y="215.71428571428572" width="107.85714285714286" height="107.85714285714286" fill="#013698"/><rect x="0" y="215.71" width="53.93" height="53.93" fill="#2486e1"/><path d="M 0 269.64 A 53.93 53.93 0 0 1  53.93 215.71 L 0 269.64 A 53.93 53.93 0 0 0 53.93 215.71" fill="#32a6fe"/><rect x="53.93" y="215.71" width="53.93" height="53.93" fill="#074bab"/><path d="M 53.93 215.71 A 53.93 53.93 0 0 1  107.86 269.64 L 53.93 215.71 A 53.93 53.93 0 0 0 107.86 269.64" fill="#30a1f9"/><rect x="0" y="269.64" width="53.93" height="53.93" fill="#157ad9"/><path d="M 0 323.57 A 53.93 53.93 0 0 1  53.93 269.64 L 53.93 323.57" fill="#0c5bbb"/><rect x="53.93" y="269.64" width="53.93" height="53.93" fill="#1b71ce"/><path d="M 53.93 323.57 A 53.93 53.93 0 0 1  107.86 269.64 L 107.86 323.57" fill="#0951b2"/><rect x="107.85714285714286" y="215.71428571428572" width="107.85714285714286" height="107.85714285714286" fill="#013698"/><rect x="107.86" y="215.71" width="53.93" height="53.93" fill="#135ebd"/><path d="M 107.86 269.64 A 53.93 53.93 0 0 1  161.79 215.71 L 107.86 269.64 A 53.93 53.93 0 0 0 161.79 215.71" fill="#02399b"/><rect x="161.79" y="215.71" width="53.93" height="53.93" fill="#1d75d1"/><path d="M 161.79 215.71 A 53.93 53.93 0 0 0 215.72 269.64 L 215.72 215.71" fill="#1780de"/><rect x="107.86" y="269.64" width="53.93" height="53.93" fill="#1372d1"/><path d="M 107.86 323.57 A 53.93 53.93 0 0 1  161.79 269.64 L 107.86 323.57 A 53.93 53.93 0 0 0 161.79 269.64" fill="#0950b0"/><rect x="161.79" y="269.64" width="53.93" height="53.93" fill="#0743a4"/><path d="M 161.79 269.64 A 53.93 53.93 0 0 1  215.72 323.57 L 161.79 269.64 A 53.93 53.93 0 0 0 215.72 323.57" fill="#0e63c2"/><rect x="215.71428571428572" y="215.71428571428572" width="107.85714285714286" height="107.85714285714286" fill="#013698"/><rect x="215.71" y="215.71" width="53.93" height="53.93" fill="#0744a5"/><path d="M 215.71 215.71 A 53.93 53.93 0 0 1  269.64 269.64 L 215.71 215.71 A 53.93 53.93 0 0 0 269.64 269.64" fill="#0a54b4"/><rect x="269.64" y="215.71" width="53.93" height="53.93" fill="#2c97f0"/><path d="M 269.64 269.64 A 53.93 53.93 0 0 0 323.57 215.71 L 269.64 215.71" fill="#217fda"/><rect x="215.71" y="269.64" width="53.93" height="53.93" fill="#0648a9"/><path d="M 215.71 323.57 A 53.93 53.93 0 0 1  269.64 269.64 L 215.71 323.57 A 53.93 53.93 0 0 0 269.64 269.64" fill="#2b96ef"/><rect x="269.64" y="269.64" width="53.93" height="53.93" fill="#0648a9"/><path d="M 269.64 323.57 A 53.93 53.93 0 0 1  323.57 269.64 L 323.57 323.57" fill="#0646a7"/><rect x="323.57" y="215.71" width="107.86" height="107.86" fill="#033c9d"/><path d="M 323.57 323.57 A 107.86 107.86 0 0 1  431.43 215.71 L 431.43 323.57" fill="#1f7bd7"/><rect x="431.43" y="215.71" width="107.86" height="107.86" fill="#2382dd"/><path d="M 431.43 323.57 A 107.86 107.86 0 0 1  539.29 215.71 L 431.43 323.57 A 107.86 107.86 0 0 0 539.29 215.71" fill="#0542a3"/><rect x="539.29" y="215.71" width="107.86" height="107.86" fill="#1e79d5"/><path d="M 539.29 215.71 A 107.86 107.86 0 0 1  647.15 323.57 L 539.29 215.71 A 107.86 107.86 0 0 0 647.15 323.57" fill="#0845a6"/><rect x="647.1428571428571" y="215.71428571428572" width="107.85714285714286" height="107.85714285714286" fill="#013698"/><rect x="647.14" y="215.71" width="53.93" height="53.93" fill="#074aab"/><path d="M 647.14 269.64 A 53.93 53.93 0 0 1  701.0699999999999 215.71 L 647.14 269.64 A 53.93 53.93 0 0 0 701.0699999999999 215.71" fill="#1767c5"/><rect x="701.07" y="215.71" width="53.93" height="53.93" fill="#0545a6"/><path d="M 701.07 269.64 A 53.93 53.93 0 0 1  755 215.71 L 755 269.64" fill="#0950b1"/><rect x="647.14" y="269.64" width="53.93" height="53.93" fill="#1b72ce"/><path d="M 647.14 323.57 A 53.93 53.93 0 0 1  701.0699999999999 269.64 L 647.14 323.57 A 53.93 53.93 0 0 0 701.0699999999999 269.64" fill="#157ad9"/><rect x="701.07" y="269.64" width="53.93" height="53.93" fill="#32a6fe"/><path d="M 701.07 269.64 A 53.93 53.93 0 0 1  755 323.57 L 701.07 269.64 A 53.93 53.93 0 0 0 755 323.57" fill="#2b94ee"/><rect x="755" y="215.71" width="107.86" height="107.86" fill="#0b59b9"/><path d="M 755 215.71 A 107.86 107.86 0 0 1  862.86 323.57 L 755 215.71 A 107.86 107.86 0 0 0 862.86 323.57" fill="#2991eb"/><rect x="862.86" y="215.71" width="107.86" height="107.86" fill="#2588e3"/><path d="M 862.86 323.57 A 107.86 107.86 0 0 1  970.72 215.71 L 862.86 323.57 A 107.86 107.86 0 0 0 970.72 215.71" fill="#32a4fc"/><rect x="970.71" y="215.71" width="107.86" height="107.86" fill="#106aca"/><path d="M 970.71 323.57 A 107.86 107.86 0 0 1  1078.57 215.71 L 970.71 323.57 A 107.86 107.86 0 0 0 1078.57 215.71" fill="#207dd9"/><rect x="1078.5714285714287" y="215.71428571428572" width="107.85714285714286" height="107.85714285714286" fill="#013698"/><rect x="1078.57" y="215.71" width="53.93" height="53.93" fill="#0b58b9"/><path d="M 1078.57 215.71 A 53.93 53.93 0 0 1  1132.5 269.64 L 1078.57 215.71 A 53.93 53.93 0 0 0 1132.5 269.64" fill="#1666c4"/><rect x="1132.5" y="215.71" width="53.93" height="53.93" fill="#2c98f1"/><path d="M 1132.5 269.64 A 53.93 53.93 0 0 0 1186.43 215.71 L 1132.5 215.71" fill="#033c9e"/><rect x="1078.57" y="269.64" width="53.93" height="53.93" fill="#2d9af3"/><path d="M 1078.57 269.64 A 53.93 53.93 0 0 1  1132.5 323.57 L 1078.57 269.64 A 53.93 53.93 0 0 0 1132.5 323.57" fill="#1373d1"/><rect x="1132.5" y="269.64" width="53.93" height="53.93" fill="#2e9bf4"/><path d="M 1132.5 269.64 A 53.93 53.93 0 0 1 1186.43 323.57 L 1132.5 323.57" fill="#0744a4"/><rect x="1186.43" y="215.71" width="107.86" height="107.86" fill="#033b9c"/><path d="M 1186.43 215.71 A 107.86 107.86 0 0 1  1294.29 323.57 L 1186.43 215.71 A 107.86 107.86 0 0 0 1294.29 323.57" fill="#0646a7"/><rect x="1294.2857142857142" y="215.71428571428572" width="107.85714285714286" height="107.85714285714286" fill="#013698"/><rect x="1294.29" y="215.71" width="53.93" height="53.93" fill="#157bda"/><path d="M 1294.29 215.71 A 53.93 53.93 0 0 1  1348.22 269.64 L 1294.29 215.71 A 53.93 53.93 0 0 0 1348.22 269.64" fill="#1767c4"/><rect x="1348.21" y="215.71" width="53.93" height="53.93" fill="#1476d4"/><path d="M 1348.21 269.64 A 53.93 53.93 0 0 1  1402.14 215.71 L 1348.21 269.64 A 53.93 53.93 0 0 0 1402.14 215.71" fill="#2587e2"/><rect x="1294.29" y="269.64" width="53.93" height="53.93" fill="#30a1fa"/><path d="M 1294.29 269.64 A 53.93 53.93 0 0 1 1348.22 323.57 L 1294.29 323.57" fill="#288fe9"/><rect x="1348.21" y="269.64" width="53.93" height="53.93" fill="#115ab9"/><path d="M 1348.21 323.57 A 53.93 53.93 0 0 1  1402.14 269.64 L 1348.21 323.57 A 53.93 53.93 0 0 0 1402.14 269.64" fill="#217ed9"/><rect x="1402.142857142857" y="215.71428571428572" width="107.85714285714286" height="107.85714285714286" fill="#013698"/><rect x="1402.14" y="215.71" width="53.93" height="53.93" fill="#196cc9"/><path d="M 1402.14 269.64 A 53.93 53.93 0 0 1  1456.0700000000002 215.71 L 1456.0700000000002 269.64" fill="#0c5aba"/><rect x="1456.07" y="215.71" width="53.93" height="53.93" fill="#023799"/><path d="M 1456.07 269.64 A 53.93 53.93 0 0 1  1510 215.71 L 1456.07 269.64 A 53.93 53.93 0 0 0 1510 215.71" fill="#1057b6"/><rect x="1402.14" y="269.64" width="53.93" height="53.93" fill="#1884e2"/><path d="M 1402.14 323.57 A 53.93 53.93 0 0 1  1456.0700000000002 269.64 L 1402.14 323.57 A 53.93 53.93 0 0 0 1456.0700000000002 269.64" fill="#0c5cbc"/><rect x="1456.07" y="269.64" width="53.93" height="53.93" fill="#013698"/><path d="M 1456.07 269.64 A 53.93 53.93 0 0 1 1510 323.57 L 1456.07 323.57" fill="#2e9bf4"/><rect x="0" y="323.57" width="107.86" height="107.86" fill="#2f9df6"/><path d="M 0 323.57 A 107.86 107.86 0 0 0 107.86 431.43 L 107.86 323.57" fill="#0a53b3"/><rect x="107.85714285714286" y="323.57142857142856" width="107.85714285714286" height="107.85714285714286" fill="#013698"/><rect x="107.86" y="323.57" width="53.93" height="53.93" fill="#288de7"/><path d="M 107.86 377.5 A 53.93 53.93 0 0 0 161.79 323.57 L 107.86 323.57" fill="#186bc8"/><rect x="161.79" y="323.57" width="53.93" height="53.93" fill="#1e77d4"/><path d="M 161.79 323.57 A 53.93 53.93 0 0 1  215.72 377.5 L 161.79 323.57 A 53.93 53.93 0 0 0 215.72 377.5" fill="#0e63c3"/><rect x="107.86" y="377.5" width="53.93" height="53.93" fill="#074bac"/><path d="M 107.86 377.5 A 53.93 53.93 0 0 1 161.79 431.43 L 107.86 431.43" fill="#0d5dbd"/><rect x="161.79" y="377.5" width="53.93" height="53.93" fill="#0c5bbb"/><path d="M 161.79 431.43 A 53.93 53.93 0 0 1  215.72 377.5 L 215.72 431.43" fill="#125cba"/><rect x="215.71" y="323.57" width="107.86" height="107.86" fill="#167ddb"/><path d="M 215.71 431.43 A 107.86 107.86 0 0 1  323.57 323.57 L 215.71 431.43 A 107.86 107.86 0 0 0 323.57 323.57" fill="#0951b2"/><rect x="323.57142857142856" y="323.57142857142856" width="107.85714285714286" height="107.85714285714286" fill="#013698"/><rect x="323.57" y="323.57" width="53.93" height="53.93" fill="#0542a3"/><path d="M 323.57 323.57 A 53.93 53.93 0 0 1  377.5 377.5 L 323.57 323.57 A 53.93 53.93 0 0 0 377.5 377.5" fill="#0543a4"/><rect x="377.5" y="323.57" width="53.93" height="53.93" fill="#0b4ead"/><path d="M 377.5 323.57 A 53.93 53.93 0 0 1  431.43 377.5 L 377.5 323.57 A 53.93 53.93 0 0 0 431.43 377.5" fill="#0d60c0"/><rect x="323.57" y="377.5" width="53.93" height="53.93" fill="#135fbe"/><path d="M 323.57 431.43 A 53.93 53.93 0 0 1  377.5 377.5 L 323.57 431.43 A 53.93 53.93 0 0 0 377.5 377.5" fill="#1068c8"/><rect x="377.5" y="377.5" width="53.93" height="53.93" fill="#1476d5"/><path d="M 377.5 377.5 A 53.93 53.93 0 0 1  431.43 431.43 L 377.5 377.5 A 53.93 53.93 0 0 0 431.43 431.43" fill="#116bca"/><rect x="431.43" y="323.57" width="107.86" height="107.86" fill="#0440a1"/><path d="M 431.43 323.57 A 107.86 107.86 0 0 1 539.29 431.43 L 431.43 431.43" fill="#0f66c5"/><rect x="539.2857142857143" y="323.57142857142856" width="107.85714285714286" height="107.85714285714286" fill="#013698"/><rect x="539.29" y="323.57" width="53.93" height="53.93" fill="#0c5bbb"/><path d="M 539.29 323.57 A 53.93 53.93 0 0 1  593.2199999999999 377.5 L 539.29 323.57 A 53.93 53.93 0 0 0 593.2199999999999 377.5" fill="#1563c1"/><rect x="593.21" y="323.57" width="53.93" height="53.93" fill="#1372d1"/><path d="M 593.21 323.57 A 53.93 53.93 0 0 1  647.14 377.5 L 593.21 323.57 A 53.93 53.93 0 0 0 647.14 377.5" fill="#2d9af3"/><rect x="539.29" y="377.5" width="53.93" height="53.93" fill="#207bd7"/><path d="M 539.29 431.43 A 53.93 53.93 0 0 1  593.2199999999999 377.5 L 539.29 431.43 A 53.93 53.93 0 0 0 593.2199999999999 377.5" fill="#053e9f"/><rect x="593.21" y="377.5" width="53.93" height="53.93" fill="#0d5dbd"/><path d="M 593.21 431.43 A 53.93 53.93 0 0 0 647.14 377.5 L 593.21 377.5" fill="#1780de"/><rect x="647.1428571428571" y="323.57142857142856" width="107.85714285714286" height="107.85714285714286" fill="#013698"/><rect x="647.14" y="323.57" width="53.93" height="53.93" fill="#1882e1"/><path d="M 647.14 323.57 A 53.93 53.93 0 0 1  701.0699999999999 377.5 L 647.14 323.57 A 53.93 53.93 0 0 0 701.0699999999999 377.5" fill="#1375d3"/><rect x="701.07" y="323.57" width="53.93" height="53.93" fill="#02389a"/><path d="M 701.07 377.5 A 53.93 53.93 0 0 1  755 323.57 L 701.07 377.5 A 53.93 53.93 0 0 0 755 323.57" fill="#074aab"/><rect x="647.14" y="377.5" width="53.93" height="53.93" fill="#084dae"/><path d="M 647.14 377.5 A 53.93 53.93 0 0 0 701.0699999999999 431.43 L 701.0699999999999 377.5" fill="#0f67c6"/><rect x="701.07" y="377.5" width="53.93" height="53.93" fill="#1271d0"/><path d="M 701.07 431.43 A 53.93 53.93 0 0 1  755 377.5 L 701.07 431.43 A 53.93 53.93 0 0 0 755 377.5" fill="#0543a4"/><rect x="755" y="323.57" width="107.86" height="107.86" fill="#1e77d3"/><path d="M 755 323.57 A 107.86 107.86 0 0 1  862.86 431.43 L 755 323.57 A 107.86 107.86 0 0 0 862.86 431.43" fill="#1882e0"/><rect x="862.86" y="323.57" width="107.86" height="107.86" fill="#0c5dbd"/><path d="M 862.86 431.43 A 107.86 107.86 0 0 1  970.72 323.57 L 862.86 431.43 A 107.86 107.86 0 0 0 970.72 323.57" fill="#033a9c"/><rect x="970.7142857142858" y="323.57142857142856" width="107.85714285714286" height="107.85714285714286" fill="#013698"/><rect x="970.71" y="323.57" width="53.93" height="53.93" fill="#1781df"/><path d="M 970.71 377.5 A 53.93 53.93 0 0 1  1024.64 323.57 L 1024.64 377.5" fill="#157bd9"/><rect x="1024.64" y="323.57" width="53.93" height="53.93" fill="#0a55b5"/><path d="M 1024.64 377.5 A 53.93 53.93 0 0 1  1078.5700000000002 323.57 L 1024.64 377.5 A 53.93 53.93 0 0 0 1078.5700000000002 323.57" fill="#1373d1"/><rect x="970.71" y="377.5" width="53.93" height="53.93" fill="#2f9ef7"/><path d="M 970.71 377.5 A 53.93 53.93 0 0 1  1024.64 431.43 L 970.71 377.5 A 53.93 53.93 0 0 0 1024.64 431.43" fill="#1578d7"/><rect x="1024.64" y="377.5" width="53.93" height="53.93" fill="#2485e0"/><path d="M 1024.64 431.43 A 53.93 53.93 0 0 1  1078.5700000000002 377.5 L 1024.64 431.43 A 53.93 53.93 0 0 0 1078.5700000000002 377.5" fill="#115ab8"/><rect x="1078.5714285714287" y="323.57142857142856" width="107.85714285714286" height="107.85714285714286" fill="#013698"/><rect x="1078.57" y="323.57" width="53.93" height="53.93" fill="#0a55b6"/><path d="M 1078.57 323.57 A 53.93 53.93 0 0 1  1132.5 377.5 L 1078.57 323.57 A 53.93 53.93 0 0 0 1132.5 377.5" fill="#0440a1"/><rect x="1132.5" y="323.57" width="53.93" height="53.93" fill="#2588e3"/><path d="M 1132.5 377.5 A 53.93 53.93 0 0 0 1186.43 323.57 L 1132.5 323.57" fill="#2a94ed"/><rect x="1078.57" y="377.5" width="53.93" height="53.93" fill="#217fdb"/><path d="M 1078.57 377.5 A 53.93 53.93 0 0 1  1132.5 431.43 L 1078.57 377.5 A 53.93 53.93 0 0 0 1132.5 431.43" fill="#0c50b0"/><rect x="1132.5" y="377.5" width="53.93" height="53.93" fill="#0542a3"/><path d="M 1132.5 431.43 A 53.93 53.93 0 0 1  1186.43 377.5 L 1186.43 431.43" fill="#1884e2"/><rect x="1186.43" y="323.57" width="107.86" height="107.86" fill="#0950b0"/><path d="M 1186.43 323.57 A 107.86 107.86 0 0 1 1294.29 431.43 L 1186.43 431.43" fill="#217fda"/><rect x="1294.2857142857142" y="323.57142857142856" width="107.85714285714286" height="107.85714285714286" fill="#013698"/><rect x="1294.29" y="323.57" width="53.93" height="53.93" fill="#278be6"/><path d="M 1294.29 323.57 A 53.93 53.93 0 0 1  1348.22 377.5 L 1294.29 323.57 A 53.93 53.93 0 0 0 1348.22 377.5" fill="#1780de"/><rect x="1348.21" y="323.57" width="53.93" height="53.93" fill="#31a2fa"/><path d="M 1348.21 377.5 A 53.93 53.93 0 0 0 1402.14 323.57 L 1348.21 323.57" fill="#023a9b"/><rect x="1294.29" y="377.5" width="53.93" height="53.93" fill="#2e9bf4"/><path d="M 1294.29 377.5 A 53.93 53.93 0 0 1 1348.22 431.43 L 1294.29 431.43" fill="#31a2fb"/><rect x="1348.21" y="377.5" width="53.93" height="53.93" fill="#0c5aba"/><path d="M 1348.21 377.5 A 53.93 53.93 0 0 1  1402.14 431.43 L 1348.21 377.5 A 53.93 53.93 0 0 0 1402.14 431.43" fill="#0950b1"/><rect x="1402.142857142857" y="323.57142857142856" width="107.85714285714286" height="107.85714285714286" fill="#013698"/><rect x="1402.14" y="323.57" width="53.93" height="53.93" fill="#2383de"/><path d="M 1402.14 377.5 A 53.93 53.93 0 0 1  1456.0700000000002 323.57 L 1402.14 377.5 A 53.93 53.93 0 0 0 1456.0700000000002 323.57" fill="#0543a4"/><rect x="1456.07" y="323.57" width="53.93" height="53.93" fill="#01389a"/><path d="M 1456.07 323.57 A 53.93 53.93 0 0 1 1510 377.5 L 1456.07 377.5" fill="#116dcc"/><rect x="1402.14" y="377.5" width="53.93" height="53.93" fill="#1e77d3"/><path d="M 1402.14 377.5 A 53.93 53.93 0 0 1  1456.0700000000002 431.43 L 1402.14 377.5 A 53.93 53.93 0 0 0 1456.0700000000002 431.43" fill="#268ae5"/><rect x="1456.07" y="377.5" width="53.93" height="53.93" fill="#023b9d"/><path d="M 1456.07 377.5 A 53.93 53.93 0 0 1  1510 431.43 L 1456.07 377.5 A 53.93 53.93 0 0 0 1510 431.43" fill="#1374d3"/><rect x="0" y="431.43" width="107.86" height="107.86" fill="#1461c0"/><path d="M 0 539.29 A 107.86 107.86 0 0 1  107.86 431.43 L 0 539.29 A 107.86 107.86 0 0 0 107.86 431.43" fill="#0a4bab"/><rect x="107.86" y="431.43" width="107.86" height="107.86" fill="#084dae"/><path d="M 107.86 539.29 A 107.86 107.86 0 0 1  215.72 431.43 L 107.86 539.29 A 107.86 107.86 0 0 0 215.72 431.43" fill="#1058b7"/><rect x="215.71" y="431.43" width="107.86" height="107.86" fill="#2586e1"/><path d="M 215.71 431.43 A 107.86 107.86 0 0 1  323.57 539.29 L 215.71 431.43 A 107.86 107.86 0 0 0 323.57 539.29" fill="#0a54b5"/><rect x="323.57142857142856" y="431.42857142857144" width="107.85714285714286" height="107.85714285714286" fill="#013698"/><rect x="323.57" y="431.43" width="53.93" height="53.93" fill="#2f9ff8"/><path d="M 323.57 431.43 A 53.93 53.93 0 0 1  377.5 485.36 L 323.57 431.43 A 53.93 53.93 0 0 0 377.5 485.36" fill="#0f66c5"/><rect x="377.5" y="431.43" width="53.93" height="53.93" fill="#0b4cac"/><path d="M 377.5 431.43 A 53.93 53.93 0 0 1  431.43 485.36 L 377.5 431.43 A 53.93 53.93 0 0 0 431.43 485.36" fill="#1d75d1"/><rect x="323.57" y="485.36" width="53.93" height="53.93" fill="#2a94ed"/><path d="M 323.57 539.29 A 53.93 53.93 0 0 1  377.5 485.36 L 377.5 539.29" fill="#1058b7"/><rect x="377.5" y="485.36" width="53.93" height="53.93" fill="#32a5fd"/><path d="M 377.5 485.36 A 53.93 53.93 0 0 1  431.43 539.29 L 377.5 485.36 A 53.93 53.93 0 0 0 431.43 539.29" fill="#0544a5"/><rect x="431.43" y="431.43" width="107.86" height="107.86" fill="#0640a2"/><path d="M 431.43 539.29 A 107.86 107.86 0 0 1  539.29 431.43 L 431.43 539.29 A 107.86 107.86 0 0 0 539.29 431.43" fill="#0a4bac"/><rect x="539.29" y="431.43" width="107.86" height="107.86" fill="#0a49aa"/><path d="M 539.29 539.29 A 107.86 107.86 0 0 1  647.15 431.43 L 539.29 539.29 A 107.86 107.86 0 0 0 647.15 431.43" fill="#084dae"/><rect x="647.14" y="431.43" width="107.86" height="107.86" fill="#2f9df6"/><path d="M 647.14 431.43 A 107.86 107.86 0 0 1  755 539.29 L 647.14 431.43 A 107.86 107.86 0 0 0 755 539.29" fill="#1068c7"/><rect x="755" y="431.42857142857144" width="107.85714285714286" height="107.85714285714286" fill="#013698"/><rect x="755" y="431.43" width="53.93" height="53.93" fill="#0646a7"/><path d="M 755 485.36 A 53.93 53.93 0 0 1  808.93 431.43 L 808.93 485.36" fill="#0b57b7"/><rect x="808.93" y="431.43" width="53.93" height="53.93" fill="#0a4bab"/><path d="M 808.93 431.43 A 53.93 53.93 0 0 1  862.8599999999999 485.36 L 808.93 431.43 A 53.93 53.93 0 0 0 862.8599999999999 485.36" fill="#02399a"/><rect x="755" y="485.36" width="53.93" height="53.93" fill="#084eae"/><path d="M 755 485.36 A 53.93 53.93 0 0 1  808.93 539.29 L 755 485.36 A 53.93 53.93 0 0 0 808.93 539.29" fill="#0a53b4"/><rect x="808.93" y="485.36" width="53.93" height="53.93" fill="#02399b"/><path d="M 808.93 539.29 A 53.93 53.93 0 0 1  862.8599999999999 485.36 L 808.93 539.29 A 53.93 53.93 0 0 0 862.8599999999999 485.36" fill="#32a4fc"/><rect x="862.86" y="431.43" width="107.86" height="107.86" fill="#2f9ef6"/><path d="M 862.86 431.43 A 107.86 107.86 0 0 1  970.72 539.29 L 862.86 431.43 A 107.86 107.86 0 0 0 970.72 539.29" fill="#2382dd"/><rect x="970.7142857142858" y="431.42857142857144" width="107.85714285714286" height="107.85714285714286" fill="#013698"/><rect x="970.71" y="431.43" width="53.93" height="53.93" fill="#1767c5"/><path d="M 970.71 431.43 A 53.93 53.93 0 0 1  1024.64 485.36 L 970.71 431.43 A 53.93 53.93 0 0 0 1024.64 485.36" fill="#1a6ecb"/><rect x="1024.64" y="431.43" width="53.93" height="53.93" fill="#0648a9"/><path d="M 1024.64 431.43 A 53.93 53.93 0 0 1  1078.5700000000002 485.36 L 1024.64 431.43 A 53.93 53.93 0 0 0 1078.5700000000002 485.36" fill="#2d98f2"/><rect x="970.71" y="485.36" width="53.93" height="53.93" fill="#074cad"/><path d="M 970.71 539.29 A 53.93 53.93 0 0 1  1024.64 485.36 L 970.71 539.29 A 53.93 53.93 0 0 0 1024.64 485.36" fill="#1374d3"/><rect x="1024.64" y="485.36" width="53.93" height="53.93" fill="#1d75d2"/><path d="M 1024.64 485.36 A 53.93 53.93 0 0 1  1078.5700000000002 539.29 L 1024.64 485.36 A 53.93 53.93 0 0 0 1078.5700000000002 539.29" fill="#157ad8"/><rect x="1078.57" y="431.43" width="107.86" height="107.86" fill="#084faf"/><path d="M 1078.57 431.43 A 107.86 107.86 0 0 1  1186.4299999999998 539.29 L 1078.57 431.43 A 107.86 107.86 0 0 0 1186.4299999999998 539.29" fill="#1069c9"/><rect x="1186.43" y="431.43" width="107.86" height="107.86" fill="#0543a5"/><path d="M 1186.43 431.43 A 107.86 107.86 0 0 0 1294.29 539.29 L 1294.29 431.43" fill="#125cba"/><rect x="1294.2857142857142" y="431.42857142857144" width="107.85714285714286" height="107.85714285714286" fill="#013698"/><rect x="1294.29" y="431.43" width="53.93" height="53.93" fill="#0d52b1"/><path d="M 1294.29 485.36 A 53.93 53.93 0 0 1  1348.22 431.43 L 1294.29 485.36 A 53.93 53.93 0 0 0 1348.22 431.43" fill="#196cc9"/><rect x="1348.21" y="431.43" width="53.93" height="53.93" fill="#084dae"/><path d="M 1348.21 431.43 A 53.93 53.93 0 0 1  1402.14 485.36 L 1348.21 431.43 A 53.93 53.93 0 0 0 1402.14 485.36" fill="#32a4fc"/><rect x="1294.29" y="485.36" width="53.93" height="53.93" fill="#106ac9"/><path d="M 1294.29 539.29 A 53.93 53.93 0 0 0 1348.22 485.36 L 1294.29 485.36" fill="#0f65c5"/><rect x="1348.21" y="485.36" width="53.93" height="53.93" fill="#013799"/><path d="M 1348.21 485.36 A 53.93 53.93 0 0 1  1402.14 539.29 L 1348.21 485.36 A 53.93 53.93 0 0 0 1402.14 539.29" fill="#074cad"/><rect x="1402.142857142857" y="431.42857142857144" width="107.85714285714286" height="107.85714285714286" fill="#013698"/><rect x="1402.14" y="431.43" width="53.93" height="53.93" fill="#0641a2"/><path d="M 1402.14 485.36 A 53.93 53.93 0 0 1  1456.0700000000002 431.43 L 1402.14 485.36 A 53.93 53.93 0 0 0 1456.0700000000002 431.43" fill="#1769c6"/><rect x="1456.07" y="431.43" width="53.93" height="53.93" fill="#1d74d1"/><path d="M 1456.07 431.43 A 53.93 53.93 0 0 1  1510 485.36 L 1456.07 431.43 A 53.93 53.93 0 0 0 1510 485.36" fill="#0f66c5"/><rect x="1402.14" y="485.36" width="53.93" height="53.93" fill="#0441a3"/><path d="M 1402.14 539.29 A 53.93 53.93 0 0 0 1456.0700000000002 485.36 L 1402.14 485.36" fill="#1e78d5"/><rect x="1456.07" y="485.36" width="53.93" height="53.93" fill="#157ad9"/><path d="M 1456.07 485.36 A 53.93 53.93 0 0 1  1510 539.29 L 1456.07 485.36 A 53.93 53.93 0 0 0 1510 539.29" fill="#0d51b1"/><rect x="0" y="539.2857142857143" width="107.85714285714286" height="107.85714285714286" fill="#013698"/><rect x="0" y="539.29" width="53.93" height="53.93" fill="#135fbd"/><path d="M 0 539.29 A 53.93 53.93 0 0 1  53.93 593.2199999999999 L 0 539.29 A 53.93 53.93 0 0 0 53.93 593.2199999999999" fill="#1271d0"/><rect x="53.93" y="539.29" width="53.93" height="53.93" fill="#126fce"/><path d="M 53.93 539.29 A 53.93 53.93 0 0 0 107.86 593.2199999999999 L 107.86 539.29" fill="#02399b"/><rect x="0" y="593.21" width="53.93" height="53.93" fill="#1f7ad6"/><path d="M 0 593.21 A 53.93 53.93 0 0 1  53.93 647.14 L 0 593.21 A 53.93 53.93 0 0 0 53.93 647.14" fill="#116ecd"/><rect x="53.93" y="593.21" width="53.93" height="53.93" fill="#0d5ebe"/><path d="M 53.93 647.14 A 53.93 53.93 0 0 1  107.86 593.21 L 107.86 647.14" fill="#033d9f"/><rect x="107.85714285714286" y="539.2857142857143" width="107.85714285714286" height="107.85714285714286" fill="#013698"/><rect x="107.86" y="539.29" width="53.93" height="53.93" fill="#2486e1"/><path d="M 107.86 593.2199999999999 A 53.93 53.93 0 0 1  161.79 539.29 L 107.86 593.2199999999999 A 53.93 53.93 0 0 0 161.79 539.29" fill="#2587e2"/><rect x="161.79" y="539.29" width="53.93" height="53.93" fill="#0440a2"/><path d="M 161.79 539.29 A 53.93 53.93 0 0 1  215.72 593.2199999999999 L 161.79 539.29 A 53.93 53.93 0 0 0 215.72 593.2199999999999" fill="#30a1f9"/><rect x="107.86" y="593.21" width="53.93" height="53.93" fill="#0a54b4"/><path d="M 107.86 647.14 A 53.93 53.93 0 0 0 161.79 593.21 L 107.86 593.21" fill="#1372d1"/><rect x="161.79" y="593.21" width="53.93" height="53.93" fill="#2280db"/><path d="M 161.79 647.14 A 53.93 53.93 0 0 1  215.72 593.21 L 161.79 647.14 A 53.93 53.93 0 0 0 215.72 593.21" fill="#043fa0"/><rect x="215.71" y="539.29" width="107.86" height="107.86" fill="#1068c7"/><path d="M 215.71 539.29 A 107.86 107.86 0 0 1  323.57 647.15 L 215.71 539.29 A 107.86 107.86 0 0 0 323.57 647.15" fill="#2485e0"/><rect x="323.57142857142856" y="539.2857142857143" width="107.85714285714286" height="107.85714285714286" fill="#013698"/><rect x="323.57" y="539.29" width="53.93" height="53.93" fill="#084dae"/><path d="M 323.57 593.2199999999999 A 53.93 53.93 0 0 0 377.5 539.29 L 323.57 539.29" fill="#0952b3"/><rect x="377.5" y="539.29" width="53.93" height="53.93" fill="#0f67c6"/><path d="M 377.5 593.2199999999999 A 53.93 53.93 0 0 0 431.43 539.29 L 377.5 539.29" fill="#1059b7"/><rect x="323.57" y="593.21" width="53.93" height="53.93" fill="#1d76d2"/><path d="M 323.57 647.14 A 53.93 53.93 0 0 1  377.5 593.21 L 323.57 647.14 A 53.93 53.93 0 0 0 377.5 593.21" fill="#1883e1"/><rect x="377.5" y="593.21" width="53.93" height="53.93" fill="#1c73cf"/><path d="M 377.5 593.21 A 53.93 53.93 0 0 1  431.43 647.14 L 377.5 593.21 A 53.93 53.93 0 0 0 431.43 647.14" fill="#1b70cd"/><rect x="431.43" y="539.29" width="107.86" height="107.86" fill="#157ad9"/><path d="M 431.43 647.15 A 107.86 107.86 0 0 1  539.29 539.29 L 431.43 647.15 A 107.86 107.86 0 0 0 539.29 539.29" fill="#0b58b8"/><rect x="539.2857142857143" y="539.2857142857143" width="107.85714285714286" height="107.85714285714286" fill="#013698"/><rect x="539.29" y="539.29" width="53.93" height="53.93" fill="#0a56b6"/><path d="M 539.29 593.2199999999999 A 53.93 53.93 0 0 1  593.2199999999999 539.29 L 593.2199999999999 593.2199999999999" fill="#0f56b5"/><rect x="593.21" y="539.29" width="53.93" height="53.93" fill="#2485e0"/><path d="M 593.21 539.29 A 53.93 53.93 0 0 1  647.14 593.2199999999999 L 593.21 539.29 A 53.93 53.93 0 0 0 647.14 593.2199999999999" fill="#2d98f2"/><rect x="539.29" y="593.21" width="53.93" height="53.93" fill="#033d9e"/><path d="M 539.29 647.14 A 53.93 53.93 0 0 1  593.2199999999999 593.21 L 539.29 647.14 A 53.93 53.93 0 0 0 593.2199999999999 593.21" fill="#2382dd"/><rect x="593.21" y="593.21" width="53.93" height="53.93" fill="#033d9f"/><path d="M 593.21 647.14 A 53.93 53.93 0 0 1  647.14 593.21 L 593.21 647.14 A 53.93 53.93 0 0 0 647.14 593.21" fill="#2281dc"/><rect x="647.14" y="539.29" width="107.86" height="107.86" fill="#084fb0"/><path d="M 647.14 647.15 A 107.86 107.86 0 0 1  755 539.29 L 647.14 647.15 A 107.86 107.86 0 0 0 755 539.29" fill="#0f64c4"/><rect x="755" y="539.2857142857143" width="107.85714285714286" height="107.85714285714286" fill="#013698"/><rect x="755" y="539.29" width="53.93" height="53.93" fill="#1e78d4"/><path d="M 755 539.29 A 53.93 53.93 0 0 0 808.93 593.2199999999999 L 808.93 539.29" fill="#2280db"/><rect x="808.93" y="539.29" width="53.93" height="53.93" fill="#2383df"/><path d="M 808.93 539.29 A 53.93 53.93 0 0 1  862.8599999999999 593.2199999999999 L 808.93 539.29 A 53.93 53.93 0 0 0 862.8599999999999 593.2199999999999" fill="#0e60c0"/><rect x="755" y="593.21" width="53.93" height="53.93" fill="#1159b8"/><path d="M 755 593.21 A 53.93 53.93 0 0 1 808.93 647.14 L 755 647.14" fill="#116dcd"/><rect x="808.93" y="593.21" width="53.93" height="53.93" fill="#0e62c2"/><path d="M 808.93 647.14 A 53.93 53.93 0 0 1  862.8599999999999 593.21 L 808.93 647.14 A 53.93 53.93 0 0 0 862.8599999999999 593.21" fill="#0952b2"/><rect x="862.8571428571429" y="539.2857142857143" width="107.85714285714286" height="107.85714285714286" fill="#013698"/><rect x="862.86" y="539.29" width="53.93" height="53.93" fill="#084dae"/><path d="M 862.86 593.2199999999999 A 53.93 53.93 0 0 1  916.79 539.29 L 862.86 593.2199999999999 A 53.93 53.93 0 0 0 916.79 539.29" fill="#0440a1"/><rect x="916.79" y="539.29" width="53.93" height="53.93" fill="#0c5bbb"/><path d="M 916.79 593.2199999999999 A 53.93 53.93 0 0 1  970.7199999999999 539.29 L 916.79 593.2199999999999 A 53.93 53.93 0 0 0 970.7199999999999 539.29" fill="#2f9ef7"/><rect x="862.86" y="593.21" width="53.93" height="53.93" fill="#1460be"/><path d="M 862.86 593.21 A 53.93 53.93 0 0 1  916.79 647.14 L 862.86 593.21 A 53.93 53.93 0 0 0 916.79 647.14" fill="#0d5fbf"/><rect x="916.79" y="593.21" width="53.93" height="53.93" fill="#32a4fc"/><path d="M 916.79 593.21 A 53.93 53.93 0 0 1 970.7199999999999 647.14 L 916.79 647.14" fill="#115bba"/><rect x="970.7142857142858" y="539.2857142857143" width="107.85714285714286" height="107.85714285714286" fill="#013698"/><rect x="970.71" y="539.29" width="53.93" height="53.93" fill="#043e9f"/><path d="M 970.71 593.2199999999999 A 53.93 53.93 0 0 1  1024.64 539.29 L 970.71 593.2199999999999 A 53.93 53.93 0 0 0 1024.64 539.29" fill="#2d99f2"/><rect x="1024.64" y="539.29" width="53.93" height="53.93" fill="#0743a4"/><path d="M 1024.64 539.29 A 53.93 53.93 0 0 0 1078.5700000000002 593.2199999999999 L 1078.5700000000002 539.29" fill="#2b95ee"/><rect x="970.71" y="593.21" width="53.93" height="53.93" fill="#288ee8"/><path d="M 970.71 593.21 A 53.93 53.93 0 0 1 1024.64 647.14 L 970.71 647.14" fill="#0d5fbf"/><rect x="1024.64" y="593.21" width="53.93" height="53.93" fill="#0b59b9"/><path d="M 1024.64 593.21 A 53.93 53.93 0 0 1  1078.5700000000002 647.14 L 1024.64 593.21 A 53.93 53.93 0 0 0 1078.5700000000002 647.14" fill="#033d9f"/><rect x="1078.57" y="539.29" width="107.86" height="107.86" fill="#1373d2"/><path d="M 1078.57 647.15 A 107.86 107.86 0 0 1  1186.4299999999998 539.29 L 1078.57 647.15 A 107.86 107.86 0 0 0 1186.4299999999998 539.29" fill="#0d51b1"/><rect x="1186.4285714285716" y="539.2857142857143" width="107.85714285714286" height="107.85714285714286" fill="#013698"/><rect x="1186.43" y="539.29" width="53.93" height="53.93" fill="#125cba"/><path d="M 1186.43 593.2199999999999 A 53.93 53.93 0 0 0 1240.3600000000001 539.29 L 1186.43 539.29" fill="#094fb0"/><rect x="1240.36" y="539.29" width="53.93" height="53.93" fill="#02399b"/><path d="M 1240.36 593.2199999999999 A 53.93 53.93 0 0 1  1294.29 539.29 L 1240.36 593.2199999999999 A 53.93 53.93 0 0 0 1294.29 539.29" fill="#0a4bab"/><rect x="1186.43" y="593.21" width="53.93" height="53.93" fill="#1781df"/><path d="M 1186.43 593.21 A 53.93 53.93 0 0 0 1240.3600000000001 647.14 L 1240.3600000000001 593.21" fill="#0b57b7"/><rect x="1240.36" y="593.21" width="53.93" height="53.93" fill="#0e63c2"/><path d="M 1240.36 593.21 A 53.93 53.93 0 0 1  1294.29 647.14 L 1240.36 593.21 A 53.93 53.93 0 0 0 1294.29 647.14" fill="#033d9f"/><rect x="1294.29" y="539.29" width="107.86" height="107.86" fill="#2486e1"/><path d="M 1294.29 539.29 A 107.86 107.86 0 0 1  1402.1499999999999 647.15 L 1294.29 539.29 A 107.86 107.86 0 0 0 1402.1499999999999 647.15" fill="#1564c2"/><rect x="1402.14" y="539.29" width="107.86" height="107.86" fill="#0749aa"/><path d="M 1402.14 539.29 A 107.86 107.86 0 0 1 1510 647.15 L 1402.14 647.15" fill="#0744a5"/></g></svg>